<svg xmlns="http://www.w3.org/2000/svg" viewBox="0 0 24 24" color="#c6d9ef">
  <path fill="currentColor" d="M10.166 3.5h-.133c-1.734 0-3.128 0-4.223.147-1.134.153-2.082.478-2.833 1.23-.752.751-1.077 1.699-1.23 2.833C1.6 8.805 1.6 10.198 1.6 11.933v.133c0 1.735 0 3.128.147 4.223.153 1.134.478 2.082 1.23 2.834.751.751 1.699 1.077 2.833 1.23 1.095.146 2.489.146 4.224.146h.132c1.735 0 3.128 0 4.223-.147 1.135-.152 2.082-.478 2.834-1.23.672-.671 1.005-1.503 1.177-2.49q.46.245.86.395c.607.223 1.3.33 1.964-.049.727-.413.973-1.147 1.076-1.842.1-.674.1-1.562.1-2.612v-1.049c0-1.05 0-1.938-.1-2.611-.103-.696-.35-1.43-1.076-1.843-.664-.378-1.357-.272-1.964-.048a7 7 0 0 0-.86.394c-.172-.987-.505-1.819-1.177-2.49-.752-.752-1.7-1.077-2.834-1.23-1.095-.147-2.488-.147-4.223-.147M4.249 6.15c.362-.362.866-.593 1.801-.719.961-.13 2.233-.131 4.05-.131s3.088.002 4.05.131c.934.126 1.439.357 1.8.718.47.47.714 1.174.802 2.729l.083 1.477 1.274-.753c.821-.486 1.366-.79 1.774-.94.194-.072.31-.09.373-.091.049-.001.065.007.08.015.012.008.03.018.06.075.038.075.086.214.124.467.078.525.08 1.278.08 2.42v.903c0 1.142-.002 1.895-.08 2.42-.038.254-.085.393-.124.467-.03.057-.048.068-.061.075-.014.008-.03.016-.079.015a1.2 1.2 0 0 1-.373-.09c-.408-.15-.953-.454-1.774-.94l-1.274-.754-.083 1.477c-.088 1.555-.333 2.26-.802 2.729-.361.361-.866.592-1.8.718-.962.13-2.234.131-4.05.131-1.817 0-3.089-.002-4.05-.13-.935-.127-1.44-.358-1.8-.72-.362-.36-.593-.865-.719-1.8-.129-.96-.13-2.233-.13-4.05s.001-3.088.13-4.049c.126-.935.357-1.44.718-1.8M11.7 9.123c.636.37 1.177.685 1.574.98.404.298.809.679.974 1.237.127.43.127.888 0 1.318-.165.557-.57.938-.974 1.237-.397.294-.938.609-1.574.98l-.089.05c-.643.376-1.19.694-1.645.896-.463.206-.999.371-1.569.236a2.32 2.32 0 0 1-1.148-.66c-.404-.425-.53-.97-.586-1.474-.054-.496-.054-1.128-.054-1.873v-.103c0-.744 0-1.377.054-1.872.056-.504.182-1.05.586-1.474.31-.327.71-.557 1.148-.66.57-.136 1.106.03 1.569.235.455.202 1.002.52 1.645.895zm-2.464.698c-.305-.135-.41-.13-.423-.13a.53.53 0 0 0-.26.15c-.008.011-.064.1-.1.43-.043.385-.044.918-.044 1.728s.001 1.342.044 1.727c.036.33.092.419.1.43.07.074.16.126.26.15.014.001.118.005.423-.13.353-.157.814-.424 1.514-.832.692-.403 1.146-.668 1.454-.896.287-.212.319-.302.318-.302v.001a.53.53 0 0 0 0-.297c.004.015-.009-.072-.318-.3-.308-.228-.762-.494-1.454-.897-.7-.408-1.16-.675-1.514-.832"/>
</svg>
