<svg xmlns="http://www.w3.org/2000/svg" viewBox="0 0 22 22" color="#c6d9ef">
  <path fill="currentColor" d="M12.1 6.646a1.146 1.146 0 1 1-2.292 0 1.146 1.146 0 0 1 2.292 0M11.95 8.896c.163.153.24.375.21.595l-.817 5.437.414-.099a.688.688 0 0 1 .32 1.338l-1.396.333a.687.687 0 0 1-.84-.764l.822-5.476-.445.088A.687.687 0 1 1 9.949 9l1.395-.278a.69.69 0 0 1 .607.174"/>
  <path fill="currentColor" d="M20.167 11a9.167 9.167 0 1 1-18.334 0 9.167 9.167 0 0 1 18.334 0m-1.375 0a7.792 7.792 0 1 0-15.584 0 7.792 7.792 0 0 0 15.584 0"/>
</svg>
